<svg version="1.1" baseProfile="full" width="24" height="24" xmlns="http://www.w3.org/2000/svg">
  <defs>
    <linearGradient id="linear10ddfc5d67a7" gradientUnits="userSpaceOnUse" x1="2.5" y1="19" x2="21.5" y2="19">
      <stop offset="0%" style="stop-color:#22B8CF;" />
      <stop offset="100%" style="stop-color:#66D9E8;" />
    </linearGradient>
    <linearGradient id="linear01244fcb2040" gradientUnits="userSpaceOnUse" x1="2.5" y1="19" x2="21.5" y2="19">
      <stop offset="0%" style="stop-color:#22B8CF;" />
      <stop offset="100%" style="stop-color:#66D9E8;" />
    </linearGradient>
    <linearGradient id="linear571411317715" gradientUnits="userSpaceOnUse" x1="2.5" y1="19" x2="21.5" y2="19">
      <stop offset="0%" style="stop-color:#22B8CF;" />
      <stop offset="100%" style="stop-color:#66D9E8;" />
    </linearGradient>
    <linearGradient id="linear07a01e063c76" gradientUnits="userSpaceOnUse" x1="2.5" y1="19" x2="21.5" y2="19">
      <stop offset="0%" style="stop-color:#22B8CF;" />
      <stop offset="100%" style="stop-color:#66D9E8;" />
    </linearGradient>
    <linearGradient id="lineare065651b0f86" gradientUnits="userSpaceOnUse" x1="2.5" y1="19" x2="21.5" y2="19">
      <stop offset="0%" style="stop-color:#22B8CF;" />
      <stop offset="100%" style="stop-color:#66D9E8;" />
    </linearGradient>
    <linearGradient id="linear2bb7d024d6c9" gradientUnits="userSpaceOnUse" x1="2.5" y1="19" x2="21.5" y2="19">
      <stop offset="0%" style="stop-color:#22B8CF;" />
      <stop offset="100%" style="stop-color:#66D9E8;" />
    </linearGradient>
    <linearGradient id="linear8ea6561b6bfb" gradientUnits="userSpaceOnUse" x1="2.5" y1="19" x2="21.5" y2="19">
      <stop offset="0%" style="stop-color:#22B8CF;" />
      <stop offset="100%" style="stop-color:#66D9E8;" />
    </linearGradient>
    <linearGradient id="linear9336cb59bf2f" gradientUnits="userSpaceOnUse" x1="2.5" y1="19" x2="21.5" y2="19">
      <stop offset="0%" style="stop-color:#22B8CF;" />
      <stop offset="100%" style="stop-color:#66D9E8;" />
    </linearGradient>
    <linearGradient id="linear27a79010e6f3" gradientUnits="userSpaceOnUse" x1="2.5" y1="19" x2="21.5" y2="19">
      <stop offset="0%" style="stop-color:#E64980;" />
      <stop offset="100%" style="stop-color:#FAA2C1;" />
    </linearGradient>
  </defs>
  <g fill="none" stroke="none">
    <path d="M 9.506184 21.5 L 14.506184 21.5 L 14.506184 16.5 L 9.506184 16.5 L 9.506184 21.5" fill="url(#linear10ddfc5d67a7)" stroke="#0B7285" stroke-width="1" stroke-linecap="round" stroke-linejoin="round" />
    <path d="M 16.5 21.5 L 21.5 21.5 L 21.5 16.5 L 16.5 16.5 L 16.5 21.5" fill="url(#linear01244fcb2040)" stroke="#0B7285" stroke-width="1" stroke-linecap="round" stroke-linejoin="round" />
    <path d="M 2.5 21.5 L 7.5 21.5 L 7.5 16.5 L 2.5 16.5 L 2.5 21.5" fill="url(#linear571411317715)" stroke="#0B7285" stroke-width="1" stroke-linecap="round" stroke-linejoin="round" />
    <path d="M 9.506184 7.5 L 14.506184 7.5 L 14.506184 2.5 L 9.506184 2.5 L 9.506184 7.5" fill="url(#linear07a01e063c76)" stroke="#0B7285" stroke-width="1" stroke-linecap="round" stroke-linejoin="round" />
    <path d="M 16.5 7.5 L 21.5 7.5 L 21.5 2.5 L 16.5 2.5 L 16.5 7.5" fill="url(#lineare065651b0f86)" stroke="#0B7285" stroke-width="1" stroke-linecap="round" stroke-linejoin="round" />
    <path d="M 2.5 7.5 L 7.5 7.5 L 7.5 2.5 L 2.5 2.5 L 2.5 7.5" fill="url(#linear2bb7d024d6c9)" stroke="#0B7285" stroke-width="1" stroke-linecap="round" stroke-linejoin="round" />
    <path d="M 2.5 14.5 L 7.5 14.5 L 7.5 9.5 L 2.5 9.5 L 2.5 14.5" fill="url(#linear8ea6561b6bfb)" stroke="#0B7285" stroke-width="1" stroke-linecap="round" stroke-linejoin="round" />
    <path d="M 16.5 14.5 L 21.5 14.5 L 21.5 9.5 L 16.5 9.5 L 16.5 14.5" fill="url(#linear9336cb59bf2f)" stroke="#0B7285" stroke-width="1" stroke-linecap="round" stroke-linejoin="round" />
    <path d="M 9.506184 14.5 L 14.506184 14.5 L 14.506184 9.5 L 9.506184 9.5 L 9.506184 14.5" fill="url(#linear27a79010e6f3)" stroke="#A61E4D" stroke-width="1" stroke-linecap="round" stroke-linejoin="round" />
  </g>
</svg>