<svg version="1.1" baseProfile="full" width="24" height="24" xmlns="http://www.w3.org/2000/svg">
  <defs />
  <g fill="none" stroke="none">
    <path d="M 2.5 21.5 L 2.5 18.5 L 5.5 18.5 L 5.5 21.5 L 2.5 21.5" fill="#22B8CF" stroke="#0B7285" stroke-width="1" stroke-linecap="round" stroke-linejoin="round" />
    <path d="M 11.5 21.5 L 11.5 18.5 L 14.5 18.5 L 14.5 21.5 L 11.5 21.5" fill="#22B8CF" stroke="#0B7285" stroke-width="1" stroke-linecap="round" stroke-linejoin="round" />
    <path d="M 17.5 21.5 L 17.5 18.5 L 20.5 18.5 L 20.5 21.5 L 17.5 21.5" fill="#22B8CF" stroke="#0B7285" stroke-width="1" stroke-linecap="round" stroke-linejoin="round" />
    <path d="M 5.5 21.5 L 5.5 18.5 L 8.5 18.5 L 8.5 21.5 L 5.5 21.5" fill="#22B8CF" stroke="#0B7285" stroke-width="1" stroke-linecap="round" stroke-linejoin="round" />
    <path d="M 8.5 18.5 L 8.5 15.5 L 11.5 15.5 L 11.5 18.5 L 8.5 18.5" fill="#FCC419" stroke="#D66000" stroke-width="1" stroke-linecap="round" stroke-linejoin="round" />
    <path d="M 14.5 18.5 L 14.5 15.5 L 17.5 15.5 L 17.5 18.5 L 14.5 18.5" fill="#FCC419" stroke="#D66000" stroke-width="1" stroke-linecap="round" stroke-linejoin="round" />
    <path d="M 11.5 18.5 L 11.5 15.5 L 14.5 15.5 L 14.5 18.5 L 11.5 18.5" fill="#FCC419" stroke="#D66000" stroke-width="1" stroke-linecap="round" stroke-linejoin="round" />
    <path d="M 2.5 18.5 L 2.5 15.5 L 5.5 15.5 L 5.5 18.5 L 2.5 18.5" fill="#FCC419" stroke="#D66000" stroke-width="1" stroke-linecap="round" stroke-linejoin="round" />
    <path d="M 5.5 15.5 L 5.5 12.5 L 8.5 12.5 L 8.5 15.5 L 5.5 15.5" fill="#FCC419" stroke="#D66000" stroke-width="1" stroke-linecap="round" stroke-linejoin="round" />
    <path d="M 8.5 12.5 L 8.5 9.5 L 11.5 9.5 L 11.5 12.5 L 8.5 12.5" fill="#FCC419" stroke="#D66000" stroke-width="1" stroke-linecap="round" stroke-linejoin="round" />
    <path d="M 17.5 15.5 L 17.5 12.5 L 20.5 12.5 L 20.5 15.5 L 17.5 15.5" fill="#FCC419" stroke="#D66000" stroke-width="1" stroke-linecap="round" stroke-linejoin="round" />
    <path d="M 14.5 12.5 L 14.5 9.5 L 17.5 9.5 L 17.5 12.5 L 14.5 12.5" fill="#FCC419" stroke="#D66000" stroke-width="1" stroke-linecap="round" stroke-linejoin="round" />
    <path d="M 17.5 9.5 L 17.5 6.5 L 20.5 6.5 L 20.5 9.5 L 17.5 9.5" fill="#FCC419" stroke="#D66000" stroke-width="1" stroke-linecap="round" stroke-linejoin="round" />
    <path d="M 11.5 9.5 L 11.5 6.5 L 14.5 6.5 L 14.5 9.5 L 11.5 9.5" fill="#FCC419" stroke="#D66000" stroke-width="1" stroke-linecap="round" stroke-linejoin="round" />
    <path d="M 14.5 6.5 L 14.5 3.5 L 17.5 3.5 L 17.5 6.5 L 14.5 6.5" fill="#FCC419" stroke="#D66000" stroke-width="1" stroke-linecap="round" stroke-linejoin="round" />
    <path d="M 2.5 12.5 L 2.5 9.5 L 5.5 9.5 L 5.5 12.5 L 2.5 12.5" fill="#FCC419" stroke="#D66000" stroke-width="1" stroke-linecap="round" stroke-linejoin="round" />
    <path d="M 2.5 9.5 L 2.5 6.5 L 5.5 6.5 L 5.5 9.5 L 2.5 9.5" fill="#FCC419" stroke="#D66000" stroke-width="1" stroke-linecap="round" stroke-linejoin="round" />
    <path d="M 11.5 15.5 L 11.5 12.5 L 14.5 12.5 L 14.5 15.5 L 11.5 15.5" fill="#FCC419" stroke="#D66000" stroke-width="1" stroke-linecap="round" stroke-linejoin="round" />
    <path d="M 5.5 6.5 L 5.5 3.5 L 8.5 3.5 L 8.5 6.5 L 5.5 6.5" fill="#FCC419" stroke="#D66000" stroke-width="1" stroke-linecap="round" stroke-linejoin="round" />
  </g>
</svg>