<svg version="1.1" baseProfile="full" width="24" height="24" xmlns="http://www.w3.org/2000/svg">
  <defs />
  <g fill="none" stroke="none">
    <path d="M 1.5 15.5 L 8.5 15.5 L 8.5 22.5 L 1.5 22.5 L 1.5 15.5" fill="#FCC419" />
    <path d="M 6.5 19 A 1.5 1.5 0 0 1 3.5 19 A 1.5 1.5 0 0 1 6.5 19" fill="#66D9E8" stroke="#0B7285" stroke-width="1" stroke-linecap="round" stroke-linejoin="round" />
    <path d="M 15.5 1.5 L 22.5 1.5 L 22.5 8.5 L 15.5 8.5 L 15.5 1.5" fill="#FCC419" />
    <path d="M 20.5 5 A 1.5 1.5 0 0 1 17.5 5 A 1.5 1.5 0 0 1 20.5 5.0000005" fill="#66D9E8" stroke="#0B7285" stroke-width="1" stroke-linecap="round" stroke-linejoin="round" />
    <path d="M 8.5 8.5 L 15.5 8.5 L 15.5 15.5 L 8.5 15.5 L 8.5 8.5" fill="#FCC419" />
    <path d="M 13.5 12 A 1.5 1.5 0 0 1 10.5 12 A 1.5 1.5 0 0 1 13.5 12" fill="#66D9E8" stroke="#0B7285" stroke-width="1" stroke-linecap="round" stroke-linejoin="round" />
    <path d="M 22.5 1.5 L 1.5 1.5" stroke="#0B7285" stroke-width="1" stroke-linecap="square" stroke-linejoin="round" />
    <path d="M 22.5 22.5 L 1.5 22.5" stroke="#0B7285" stroke-width="1" stroke-linecap="square" stroke-linejoin="round" />
    <path d="M 22.5 8.5 L 1.5 8.5" stroke="#0B7285" stroke-width="1" stroke-linecap="square" stroke-linejoin="round" />
    <path d="M 22.5 15.5 L 1.5 15.5" stroke="#0B7285" stroke-width="1" stroke-linecap="square" stroke-linejoin="round" />
    <path d="M 15.5 1.5 L 15.5 22.5" stroke="#0B7285" stroke-width="1" stroke-linecap="square" stroke-linejoin="round" />
    <path d="M 8.5 1.5 L 8.5 22.5" stroke="#0B7285" stroke-width="1" stroke-linecap="square" stroke-linejoin="round" />
    <path d="M 22.5 1.5 L 22.5 22.5" stroke="#0B7285" stroke-width="1" stroke-linecap="square" stroke-linejoin="round" />
    <path d="M 1.5 1.5 L 1.5 22.5" stroke="#0B7285" stroke-width="1" stroke-linecap="square" stroke-linejoin="round" />
  </g>
</svg>