<svg version="1.1" baseProfile="full" width="24" height="24" xmlns="http://www.w3.org/2000/svg">
  <defs />
  <g fill="none" stroke="none">
    <path d="M 4.5 20.5 L 15 20.5 L 20.5 15 L 20.5 4.5 L 10 4.5 L 4.5 10 L 4.5 20.5" fill="#66D9E8" />
    <path d="M 15 20.5 L 20.5 15 L 20.5 4.5 L 15 10" fill="#22B8CF" />
    <path d="M 4.5 10 L 15 10 L 20.5 4.5 L 10 4.5" fill="#C5F6FA" />
    <path d="M 4.5 20.5 L 15 20.5 L 20.5 15 L 20.5 4.5 L 10 4.5 L 4.5 10 L 4.5 20.5" stroke="#0B7285" stroke-width="1" stroke-linecap="round" stroke-linejoin="round" />
    <path d="M 17 10 A 1.5 1.5 0 0 1 14 10 A 1.5 1.5 0 0 1 17 10" fill="#FAA2C1" stroke="#A61E4D" stroke-width="1" stroke-linecap="round" stroke-linejoin="round" />
    <path d="M 6 10 A 1.5 1.5 0 0 1 3 10 A 1.5 1.5 0 0 1 6 10" fill="#FAA2C1" stroke="#A61E4D" stroke-width="1" stroke-linecap="round" stroke-linejoin="round" />
    <path d="M 6 20.5 A 1.5 1.5 0 0 1 3 20.5 A 1.5 1.5 0 0 1 6 20.5" fill="#FAA2C1" stroke="#A61E4D" stroke-width="1" stroke-linecap="round" stroke-linejoin="round" />
    <path d="M 17 20.5 A 1.5 1.5 0 0 1 14 20.5 A 1.5 1.5 0 0 1 17 20.5" fill="#FAA2C1" stroke="#A61E4D" stroke-width="1" stroke-linecap="round" stroke-linejoin="round" />
    <path d="M 22 4.5 A 1.5 1.5 0 0 1 19 4.5 A 1.5 1.5 0 0 1 22 4.5000005" fill="#FAA2C1" stroke="#A61E4D" stroke-width="1" stroke-linecap="round" stroke-linejoin="round" />
    <path d="M 22 15.5 A 1.5 1.5 0 0 1 19 15.5 A 1.5 1.5 0 0 1 22 15.5" fill="#FAA2C1" stroke="#A61E4D" stroke-width="1" stroke-linecap="round" stroke-linejoin="round" />
    <path d="M 11 4.5 A 1.5 1.5 0 0 1 8 4.5 A 1.5 1.5 0 0 1 11 4.5000005" fill="#FAA2C1" stroke="#A61E4D" stroke-width="1" stroke-linecap="round" stroke-linejoin="round" />
  </g>
</svg>