<svg version="1.1" baseProfile="full" width="24" height="24" xmlns="http://www.w3.org/2000/svg">
  <defs />
  <g fill="none" stroke="none">
    <path d="M 17.5 14.5 L 21 14.5 L 22.5 13 L 22.5 9.5 L 19 9.5 L 17.5 11 L 17.5 14.5" fill="#FCC419" />
    <path d="M 21 14.5 L 22.5 13 L 22.5 9.5 L 21 11" fill="#D66000" />
    <path d="M 17.5 11 L 21 11 L 22.5 9.5 L 19 9.5" fill="#FFE066" />
    <path d="M 17.5 14.5 L 21 14.5 L 22.5 13 L 22.5 9.5 L 19 9.5 L 17.5 11 L 17.5 14.5" stroke="#D66000" stroke-width="1" stroke-linecap="round" stroke-linejoin="round" />
    <path d="M 12 10.5 L 14 12.5 L 12 14.5" stroke="#0B7285" stroke-width="1" stroke-linecap="round" stroke-linejoin="round" />
    <path d="M 14 12.5 L 9 12.5" stroke="#0B7285" stroke-width="1" stroke-linecap="round" stroke-linejoin="round" />
    <path d="M 2.5 2.5 L 2.5 7.5 L 7.5 7.5 L 2.5 2.5" fill="#22B8CF" stroke="#0B7285" stroke-width="1" stroke-linecap="round" stroke-linejoin="round" />
    <path d="M 6 12.5 A 1.5 1.5 0 0 1 3 12.5 A 1.5 1.5 0 0 1 6 12.5" fill="#66D9E8" stroke="#0B7285" stroke-width="1" stroke-linecap="round" stroke-linejoin="round" />
    <path d="M 2.5 21.5 L 6 21.5 L 7.5 20 L 7.5 16.5 L 4 16.5 L 2.5 18 L 2.5 21.5" fill="#66D9E8" />
    <path d="M 6 21.5 L 7.5 20 L 7.5 16.5 L 6 18" fill="#22B8CF" />
    <path d="M 2.5 18 L 6 18 L 7.5 16.5 L 4 16.5" fill="#C5F6FA" />
    <path d="M 2.5 21.5 L 6 21.5 L 7.5 20 L 7.5 16.5 L 4 16.5 L 2.5 18 L 2.5 21.5" stroke="#0B7285" stroke-width="1" stroke-linecap="round" stroke-linejoin="round" />
  </g>
</svg>