<svg version="1.1" baseProfile="full" width="24" height="24" xmlns="http://www.w3.org/2000/svg">
  <defs />
  <g fill="none" stroke="none">
    <path d="M 5 14.5 A 1.5 1.5 0 0 1 2 14.5 A 1.5 1.5 0 0 1 5 14.5" fill="#FAA2C1" stroke="#A61E4D" stroke-width="1" stroke-linecap="round" stroke-linejoin="round" />
    <path d="M 7 8.5 A 1.5 1.5 0 0 1 4 8.5 A 1.5 1.5 0 0 1 7 8.5" fill="#FAA2C1" stroke="#A61E4D" stroke-width="1" stroke-linecap="round" stroke-linejoin="round" />
    <path d="M 10 5.5 A 1.5 1.5 0 0 1 7 5.5 A 1.5 1.5 0 0 1 10 5.5000005" fill="#FAA2C1" stroke="#A61E4D" stroke-width="1" stroke-linecap="round" stroke-linejoin="round" />
    <path d="M 11 16.5 A 1.5 1.5 0 0 1 8 16.5 A 1.5 1.5 0 0 1 11 16.5" fill="#FAA2C1" stroke="#A61E4D" stroke-width="1" stroke-linecap="round" stroke-linejoin="round" />
    <path d="M 18 16.5 A 1.5 1.5 0 0 1 15 16.5 A 1.5 1.5 0 0 1 18 16.5" fill="#FAA2C1" stroke="#A61E4D" stroke-width="1" stroke-linecap="round" stroke-linejoin="round" />
    <path d="M 18 8.5 A 1.5 1.5 0 0 1 15 8.5 A 1.5 1.5 0 0 1 18 8.5" fill="#FAA2C1" stroke="#A61E4D" stroke-width="1" stroke-linecap="round" stroke-linejoin="round" />
    <path d="M 13 11.5 A 1.5 1.5 0 0 1 10 11.5 A 1.5 1.5 0 0 1 13 11.5" fill="#FAA2C1" stroke="#A61E4D" stroke-width="1" stroke-linecap="round" stroke-linejoin="round" />
  </g>
</svg>