<svg version="1.1" baseProfile="full" width="24" height="24" xmlns="http://www.w3.org/2000/svg">
  <defs />
  <g fill="none" stroke="none">
    <path d="M 2 2 L 2 9.5 L 9.5 2 L 2 2" fill="#FF00FF" />
    <path d="M 22 2 L 14.5 2 L 22 9.5 L 22 2" fill="#FF00FF" />
    <path d="M 2 22 L 9.5 22 L 2 14.5 L 2 22" fill="#FF00FF" />
    <path d="M 22 22 L 22 14.5 L 14.5 22 L 22 22" fill="#FF00FF" />
    <path d="M 7 7 L 17 7 L 17 17 L 7 17 L 7 7" fill="#FF00FF" />
    <path d="M 15 12 A 3 3 0 0 1 9 12 A 3 3 0 0 1 15 12.000001" fill="#FFFFFF" />
  </g>
</svg>